<svg xmlns="http://www.w3.org/2000/svg" viewBox="0 0 52.02 37.57" id="shuffle-button">
  <path fill="none" stroke="#000" stroke-linecap="round" stroke-linejoin="round" stroke-width="1.75" d="M61.13,339h0a17.92,17.92,0,0,1-13.19-5.79L30.55,314.31a12,12,0,0,0-8.48-3.52h-2.9" transform="translate(-9.99 -305.12)"></path>
  <path fill="none" stroke="#000" stroke-linecap="round" stroke-linejoin="round" stroke-width="1.75" d="M19.17,337h2.9a12,12,0,0,0,8.48-3.51l17.39-18.92a17.93,17.93,0,0,1,13.19-5.8h0" transform="translate(-9.99 -305.12)"></path>
  <polygon fill="none" stroke="#000" stroke-linecap="round" stroke-linejoin="round" stroke-width="1.75" points="9.18 5.67 9.18 10.46 5.03 8.07 .88 5.67 5.03 3.27 9.18 .88 9.18 5.67"></polygon>
  <polygon fill="none" stroke="#000" stroke-linecap="round" stroke-linejoin="round" stroke-width="1.75" points="9.18 31.9 9.18 36.69 5.03 34.29 .88 31.9 5.03 29.5 9.18 27.1 9.18 31.9"></polygon>
</svg>
